<svg xmlns="http://www.w3.org/2000/svg" viewBox="0 0 800 500" role="img" aria-labelledby="title desc">
  <title id="title">Indian Food</title>
  <desc id="desc">Illustration representing Indian cuisine.</desc>
  <rect width="800" height="500" fill="#0f0f0f"/>
  <rect x="40" y="40" width="720" height="420" rx="28" fill="#fff" fill-opacity="0.07" stroke="#fff" stroke-opacity="0.2"/>
  <circle cx="400" cy="220" r="120" fill="#ffffff" fill-opacity="0.94"/>
  <path d="M270 200c40-55 78-82 130-82 50 0 98 31 132 82-28 18-56 30-88 40-32 10-62 13-90 13-32 0-62-5-84-13-31-9-58-22-86-40Z" fill="#111"/>
  <path d="M318 208c24 20 45 28 82 28 36 0 57-8 82-28" stroke="#111" stroke-width="12" stroke-linecap="round" fill="none"/>
  <path d="M355 248h90" stroke="#111" stroke-width="12" stroke-linecap="round"/>
  <text x="400" y="430" text-anchor="middle" font-family="Arial, Helvetica, sans-serif" font-size="34" font-weight="700" fill="#ffffff">Indian Food</text>
</svg>
